<svg fill="none" height="186" viewBox="0 0 186 186" width="186" xmlns="http://www.w3.org/2000/svg"><path clip-rule="evenodd" d="m84.6019 1.39605c2.8293-.26211 5.6953-.39605 8.5921-.39605 2.8967 0 5.7627.13394 8.592.39605 1.1.1019 1.909 1.07611 1.807 2.17597s-1.076 1.90887-2.176 1.80698c-2.7068-.25077-5.4496-.379-8.223-.379s-5.5163.12823-8.2231.379c-1.0999.10189-2.0741-.70712-2.176-1.80698s.7072-2.07407 1.807-2.17597zm44.3111 8.94615c.461-1.00366 1.649-1.44343 2.652-.98223 5.242 2.40843 10.217 5.29483 14.872 8.60303.9.64 1.111 1.8886.471 2.7889s-1.888 1.1114-2.789.4714c-4.452-3.1648-9.211-5.9255-14.224-8.2287-1.003-.4612-1.443-1.6487-.982-2.6524zm-71.438 0c.4612 1.0037.0215 2.1912-.9822 2.6524-5.0124 2.3032-9.7716 5.0639-14.224 8.2287-.9003.64-2.149.4289-2.7889-.4714s-.4289-2.1489.4714-2.7888c4.6542-3.3083 9.6299-6.1947 14.8713-8.60313 1.0037-.4612 2.1912-.02143 2.6524.98223zm107.967 28.9437c.9-.6399 2.149-.4289 2.789.4714 3.308 4.6543 6.195 9.63 8.603 14.8714.461 1.0036.021 2.1912-.982 2.6523-1.004.4612-2.191.0215-2.653-.9822-2.303-5.0124-5.064-9.7716-8.228-14.224-.64-.9003-.429-2.1489.471-2.7889zm-144.4961 0c.9003.64 1.1114 1.8886.4714 2.7889-3.1648 4.4525-5.9255 9.2116-8.2287 14.224-.4612 1.0037-1.6487 1.4434-2.6524.9823-1.00367-.4612-1.44344-1.6488-.98225-2.6524 2.40845-5.2414 5.29485-10.2171 8.60305-14.8714.64-.9003 1.8886-1.1113 2.7889-.4714zm161.6761 43.315c1.1-.1018 2.074.7072 2.176 1.807.262 2.8294.396 5.6954.396 8.5921s-.134 5.7627-.396 8.592c-.102 1.1-1.076 1.909-2.176 1.807s-1.909-1.076-1.807-2.176c.251-2.7068.379-5.4496.379-8.223s-.128-5.5162-.379-8.2231c-.102-1.0998.707-2.0741 1.807-2.176zm-178.85599.0001c1.09985.1019 1.90887 1.0761 1.80697 2.1759-.25076 2.7069-.379 5.4497-.379 8.2231s.12824 5.5162.379 8.223c.1019 1.1-.70711 2.074-1.80697 2.176s-2.07408-.707-2.17597-1.807c-.26212-2.8293-.39606-5.6953-.39606-8.592s.13394-5.7627.39606-8.5921c.10189-1.0998 1.07611-1.9088 2.17597-1.8069zm6.77019 46.118c1.0037-.461 2.1912-.021 2.6524.982 2.3032 5.013 5.0639 9.772 8.2287 14.224.64.901.4289 2.149-.4714 2.789s-2.1489.429-2.7889-.471c-3.3082-4.655-6.1946-9.63-8.60304-14.872-.4612-1.003-.02143-2.191.98224-2.652zm165.3158 0c1.003.461 1.443 1.649.982 2.652-2.408 5.242-5.295 10.217-8.603 14.872-.64.9-1.889 1.111-2.789.471s-1.111-1.888-.471-2.789c3.164-4.452 5.925-9.211 8.228-14.224.462-1.003 1.649-1.443 2.653-.982zm-136.3721 36.529c.64-.9 1.8886-1.111 2.7889-.471 4.4524 3.165 9.2116 5.925 14.224 8.228 1.0037.462 1.4434 1.649.9822 2.653-.4612 1.003-1.6487 1.443-2.6524.982-5.2414-2.408-10.217-5.295-14.8713-8.603-.9003-.64-1.1113-1.889-.4714-2.789zm107.4281 0c.64.9.429 2.149-.471 2.789-4.655 3.308-9.63 6.195-14.872 8.603-1.003.461-2.191.021-2.652-.982-.461-1.004-.021-2.191.982-2.653 5.013-2.303 9.772-5.063 14.224-8.228.901-.64 2.149-.429 2.789.471zm-64.1131 17.18c.1019-1.1 1.0761-1.909 2.176-1.807 2.7068.251 5.4497.379 8.2231.379s5.5162-.128 8.223-.379c1.1-.102 2.074.707 2.176 1.807s-.707 2.074-1.807 2.176c-2.8293.262-5.6953.396-8.592.396-2.8968 0-5.7627-.134-8.5921-.396-1.0998-.102-1.9089-1.076-1.807-2.176z" fill="#fff" fill-rule="evenodd" stroke="#fff" stroke-linecap="round"/></svg>