<svg fill="none" height="184" viewBox="0 0 184 184" width="184" xmlns="http://www.w3.org/2000/svg"><path clip-rule="evenodd" d="m91.7496.00033379c.0834-.00022245.1669-.00033379.2504-.00033379s.167.00011134.2504.00033379c1.1046.00294435 1.9976.90075821 1.9947 2.00532621-.003 1.10456-.9008 1.9976-2.0053 1.99466-.0799-.00021-.1599-.00032-.2398-.00032s-.1599.00011-.2398.00032c-1.1045.00294-2.0023-.8901-2.0053-1.99466-.0029-1.104567.8901-2.00238174 1.9947-2.00532621zm12.1154 2.75242621c.169-1.09164 1.19-1.839984 2.282-1.67147.165.02544.33.05132.494.07763 1.091.17446 1.834 1.20007 1.659 2.29078-.174 1.0907-1.2 1.83347-2.291 1.65902-.157-.02517-.314-.04992-.472-.07426-1.092-.16851-1.84-1.19006-1.672-2.2817zm-23.7304 0c.1685 1.09164-.5799 2.1132-1.6715 2.28171-.1577.02433-.3152.04908-.4725.07425-1.0907.17446-2.1163-.56831-2.2908-1.65902-.1744-1.09071.5683-2.11632 1.659-2.29077.1646-.02632.3292-.0522.494-.07764 1.0917-.168511 2.1132.57983 2.2818 1.67147zm37.5504 2.94219c.338-1.0515 1.465-1.62968 2.516-1.29141.159.05096.317.10235.475.15415 1.05.34401 1.622 1.47379 1.278 2.52342s-1.474 1.62165-2.524 1.27764c-.151-.04954-.302-.09867-.454-.1474-1.051-.33827-1.629-1.4649-1.291-2.5164zm-51.3701 0c.3383 1.0515-.2399 2.17813-1.2914 2.5164-.1515.04874-.3028.09787-.4539.1474-1.0496.34401-2.1794-.228-2.5234-1.27763-.344-1.04964.228-2.17941 1.2776-2.52342.1581-.05181.3163-.10319.4747-.15416 1.0515-.33827 2.1782.23992 2.5164 1.29141zm64.5521 5.08235c.5-.98513 1.703-1.37874 2.688-.87916.149.07517.297.15076.444.22666.983.5049 1.37 1.7107.865 2.6931s-1.711 1.3694-2.693.8645c-.142-.0726-.283-.1449-.425-.2168-.985-.4996-1.379-1.7032-.879-2.6883zm-77.734 0c.4996.9851.106 2.1887-.8792 2.6883-.1417.0719-.2832.1442-.4245.2168-.9824.5049-2.1882.1179-2.6931-.8645s-.1179-2.1882.8645-2.6931c.1478-.0759.2958-.15149.444-.22665.9851-.49959 2.1887-.10597 2.6883.87915zm89.953 7.0898c.648-.8948 1.898-1.0953 2.793-.4477.134.0974.269.1951.403.2931.891.6524 1.085 1.9039.432 2.7952-.652.8913-1.903 1.085-2.795.4326-.128-.0938-.256-.1873-.385-.2804-.895-.6476-1.095-1.8979-.448-2.7928zm-102.1722 0c.6476.8949.4471 2.1452-.4477 2.7928-.1287.0931-.2572.1866-.3854.2804-.8913.6524-2.1427.4587-2.7951-.4326s-.4587-2.1428.4327-2.7952c.134-.098.2682-.1957.4028-.2931.8948-.6476 2.1452-.4471 2.7927.4477zm113.1352 8.9108c.779-.7832 2.045-.7866 2.828-.0077.118.1172.236.2346.353.3524.779.7831.775 2.0495-.008 2.8284s-2.049.7755-2.828-.0076c-.112-.1127-.225-.2251-.337-.3371-.784-.779-.787-2.0453-.008-2.8284zm-124.098 0c.7789.7831.7755 2.0494-.0076 2.8284-.1127.112-.2251.2244-.3371.3371-.779.7831-2.0453.7865-2.8284.0076-.7832-.7789-.7866-2.0453-.0077-2.8284.1172-.1178.2346-.2352.3524-.3524.7831-.7789 2.0495-.7755 2.8284.0077zm133.541 10.5077c.892-.6524 2.143-.4587 2.795.4327.099.134.196.2682.294.4028.647.8948.447 2.1452-.448 2.7927-.895.6476-2.145.4471-2.793-.4477-.093-.1287-.187-.2572-.28-.3854-.653-.8913-.459-2.1427.432-2.7951zm-142.9843 0c.8913.6524 1.085 1.9038.4326 2.7951-.0938.1282-.1873.2567-.2804.3854-.6476.8948-1.8979 1.0953-2.7928.4477-.8948-.6475-1.0953-1.8979-.4477-2.7927.0974-.1346.1951-.2688.2931-.4028.6524-.8914 1.9039-1.0851 2.7952-.4327zm150.6743 11.8506c.983-.5049 2.188-.1179 2.693.8645.076.1478.152.2958.227.444.499.9851.106 2.1887-.879 2.6883s-2.189.106-2.689-.8792c-.072-.1417-.144-.2832-.216-.4245-.505-.9824-.118-2.1882.864-2.6931zm-158.3641 0c.9824.5049 1.3694 1.7107.8645 2.6931-.0726.1413-.1449.2828-.2168.4245-.4996.9852-1.7032 1.3788-2.6883.8792-.98513-.4996-1.37874-1.7032-.87916-2.6883.07517-.1482.15076-.2962.22666-.444.5049-.9824 1.7107-1.3694 2.6931-.8645zm164.1011 12.91c1.05-.344 2.179.228 2.523 1.2776.052.1581.103.3163.154.4747.339 1.0515-.239 2.1782-1.291 2.5164-1.051.3383-2.178-.2399-2.516-1.2914-.049-.1515-.098-.3028-.148-.4539-.344-1.0496.228-2.1794 1.278-2.5234zm-169.83789 0c1.04963.344 1.62165 1.4738 1.27764 2.5234-.04954.1511-.09867.3025-.1474.4539-.33827 1.0515-1.4649 1.6297-2.5164 1.2915-1.0515-.3383-1.62968-1.4649-1.29141-2.5164.05096-.1585.10235-.3167.15415-.4748.34401-1.0496 1.47379-1.6216 2.52342-1.2776zm173.46889 13.6536c1.091-.1744 2.117.5683 2.291 1.659.026.1646.052.3292.078.494.168 1.0917-.58 2.1132-1.672 2.2818-1.091.1685-2.113-.5799-2.281-1.6715-.025-.1577-.05-.3152-.075-.4725-.174-1.0907.569-2.1163 1.659-2.2908zm-177.1003 0c1.0907.1745 1.83347 1.2001 1.65902 2.2908-.02517.1574-.04992.3149-.07426.4725-.16851 1.0916-1.19006 1.84-2.2817 1.6715s-1.839984-1.1901-1.67147-2.2817c.02544-.1649.05132-.3295.07763-.4941.17446-1.0907 1.20007-1.8334 2.29078-1.659zm178.5443 14.0551c1.105-.0029 2.003.8901 2.006 1.9947v.1188.1316.2504c-.003 1.1046-.901 1.9976-2.006 1.9947-1.104-.003-1.997-.9008-1.994-2.0053 0-.0799 0-.1599 0-.2398s0-.1599 0-.2398c-.003-1.1045.89-2.0023 1.994-2.0053zm-179.98834 0c1.10456.003 1.9976.9008 1.99466 2.0053-.00021.0799-.00032.1599-.00032.2398s.00011.1599.00032.2398c.00294 1.1045-.8901 2.0023-1.99466 2.0053-1.104567.0029-2.00238174-.8901-2.00532621-1.9947-.00022245-.0834-.00033379-.1669-.00033379-.2504s.00011134-.167.00033379-.2504c.00294435-1.1046.90075821-1.9976 2.00532621-1.9947zm179.24134 14.1101c1.092.169 1.84 1.19 1.672 2.282-.026.165-.052.33-.078.494-.174 1.091-1.2 1.834-2.291 1.659-1.09-.174-1.833-1.2-1.659-2.291.025-.157.05-.314.075-.472.168-1.092 1.19-1.84 2.281-1.672zm-178.49424 0c1.09164-.168 2.1132.58 2.28171 1.672.02433.158.04908.315.07425.472.17446 1.091-.56831 2.117-1.65902 2.291-1.09071.175-2.11632-.568-2.29077-1.659-.02632-.164-.0522-.329-.07764-.494-.168511-1.091.57983-2.113 1.67147-2.282zm175.55224 13.82c1.052.338 1.63 1.465 1.291 2.516-.05.159-.102.317-.154.475-.344 1.05-1.473 1.622-2.523 1.278s-1.622-1.474-1.278-2.524c.027-.082.054-.164.081-.246.022-.069.044-.138.067-.208.338-1.051 1.465-1.629 2.516-1.291zm-172.61005 0c1.0515-.338 2.17813.24 2.5164 1.291.04874.152.09787.303.1474.454.34401 1.05-.228 2.18-1.27763 2.524-1.04964.344-2.17941-.228-2.52342-1.278-.05181-.158-.10319-.316-.15416-.475-.33827-1.051.23992-2.178 1.29141-2.516zm167.52805 13.182c.985.5 1.378 1.703.879 2.688-.075.149-.151.297-.227.444-.505.983-1.71 1.37-2.693.865-.982-.505-1.369-1.711-.864-2.693.053-.104.106-.208.159-.312.019-.038.038-.075.057-.113.5-.985 1.704-1.379 2.689-.879zm-162.4457 0c.9851-.5 2.1887-.106 2.6883.879.0719.142.1442.283.2168.425.5049.982.1179 2.188-.8645 2.693s-2.1882.118-2.6931-.865c-.0759-.147-.15149-.295-.22665-.444-.49959-.985-.10597-2.188.87915-2.688zm7.0898 12.219c.8949-.647 2.1452-.447 2.7928.448.0931.129.1866.257.2804.385.6524.892.4587 2.143-.4326 2.795-.8913.653-2.1428.459-2.7952-.432-.098-.134-.1957-.269-.2931-.403-.6476-.895-.4471-2.145.4477-2.793zm148.2659 0c.895.648 1.095 1.898.448 2.793-.098.134-.195.269-.294.403-.652.891-1.903 1.085-2.795.432-.891-.652-1.085-1.903-.432-2.795.093-.128.187-.256.28-.385.648-.895 1.898-1.095 2.793-.448zm-8.911 10.963c.783.779.787 2.045.008 2.828-.117.118-.235.236-.353.353-.783.779-2.049.775-2.828-.008s-.776-2.049.008-2.828l.337-.337c.779-.784 2.045-.787 2.828-.008zm-130.4441 0c.7831-.779 2.0494-.776 2.8284.008.112.112.2244.225.3371.337.7831.779.7865 2.045.0076 2.828s-2.0453.787-2.8284.008c-.1178-.117-.2352-.235-.3524-.353-.7789-.783-.7755-2.049.0077-2.828zm10.5077 9.443c.6524-.891 1.9038-1.085 2.7951-.432.1282.093.2567.187.3854.28.8948.648 1.0953 1.898.4477 2.793-.6475.895-1.8979 1.095-2.7927.448-.1346-.098-.2688-.195-.4028-.294-.8914-.652-1.0851-1.903-.4327-2.795zm109.4284 0c.653.892.459 2.143-.432 2.795-.134.099-.269.196-.403.294-.895.647-2.145.447-2.793-.448-.647-.895-.447-2.145.448-2.793.129-.093.257-.187.385-.28.892-.653 2.143-.459 2.795.432zm-97.5778 7.69c.5049-.982 1.7107-1.369 2.6931-.864.1413.072.2828.144.4245.216.9852.5 1.3788 1.704.8792 2.689s-1.7032 1.378-2.6883.879c-.0829-.042-.1657-.084-.2484-.127-.0652-.033-.1304-.066-.1956-.1-.9824-.505-1.3694-1.71-.8645-2.693zm85.7278 0c.505.983.118 2.188-.865 2.693-.147.076-.295.152-.444.227-.985.499-2.188.106-2.688-.879s-.106-2.189.879-2.689c.142-.072.283-.144.425-.216.982-.505 2.188-.118 2.693.864zm-72.8178 5.737c.344-1.05 1.4738-1.622 2.5234-1.278.1511.05.3025.099.4539.148 1.0515.338 1.6297 1.465 1.2915 2.516-.3383 1.052-1.4649 1.63-2.5164 1.291-.1585-.05-.3167-.102-.4748-.154-1.0496-.344-1.6216-1.473-1.2776-2.523zm59.9078 0c.344 1.05-.228 2.179-1.278 2.523-.066.022-.133.044-.199.065-.092.03-.184.06-.276.089-1.051.339-2.178-.239-2.516-1.291-.338-1.051.24-2.178 1.291-2.516.152-.049.303-.098.454-.148 1.05-.344 2.18.228 2.524 1.278zm-13.654 3.631c.175 1.091-.568 2.117-1.659 2.291-.164.026-.329.052-.494.078-1.091.168-2.113-.58-2.282-1.672-.168-1.091.58-2.113 1.672-2.281.158-.025.315-.05.472-.075 1.091-.174 2.117.569 2.291 1.659zm-32.6002 0c.1745-1.09 1.2001-1.833 2.2908-1.659.1574.025.3149.05.4725.075 1.0916.168 1.84 1.19 1.6715 2.281-.1685 1.092-1.1901 1.84-2.2817 1.672-.0798-.013-.1595-.025-.2392-.038-.085-.013-.1699-.026-.2549-.04-1.0907-.174-1.8334-1.2-1.659-2.291zm14.0551 1.444c.003-1.104.9008-1.997 2.0053-1.994h.1366.1032.2398c1.1045-.003 2.0023.89 2.0053 1.994.0029 1.105-.8901 2.003-1.9947 2.006-.0834 0-.1669 0-.2504 0s-.167 0-.2504 0c-1.1046-.003-1.9976-.901-1.9947-2.006z" fill="#fff" fill-rule="evenodd"/></svg>